<svg xmlns="http://www.w3.org/2000/svg" width="69.497" height="72.469" viewBox="0 0 69.497 72.469">
  <g id="Group_131497" data-name="Group 131497" transform="translate(0.112 0.083)">
    <g id="Group_131498" data-name="Group 131498" transform="translate(0.888 0.655)">
      <path id="Path_131622" data-name="Path 131622" d="M66.429,59.69H73.12m-20.932,0H70.462M24.607,68.938H44.07m-28.281,0h9.673m42.77-31.986H72.1a.859.859,0,0,1,.856.859V83.319a4.3,4.3,0,0,1-4.282,4.295H56.532a4.3,4.3,0,0,1-4.283-4.295V37.811a.86.86,0,0,1,.856-.859H61.63M20.478,51H42.907a.968.968,0,0,1,.963.966v30.82a4.838,4.838,0,0,1-4.817,4.831H20.606a4.838,4.838,0,0,1-4.817-4.831V51.963A.968.968,0,0,1,16.752,51h4.295" transform="translate(-7.719 -16.883)" fill="none" stroke="#1c4733" stroke-miterlimit="10" stroke-width="2"/>
      <path id="Path_131623" data-name="Path 131623" d="M101.781,55.265V12.855a2.584,2.584,0,0,1,.865-1.907L113.564.975" transform="translate(-45.741 -0.975)" fill="none" stroke="#1c4733" stroke-miterlimit="10" stroke-width="2"/>
      <circle id="Ellipse_7" data-name="Ellipse 7" cx="9.665" cy="9.665" r="9.665" transform="translate(0 25.711)" fill="none" stroke="#1c4733" stroke-miterlimit="10" stroke-width="2"/>
    </g>
  </g>
</svg>
