<svg id="Group_131424" data-name="Group 131424" xmlns="http://www.w3.org/2000/svg" xmlns:xlink="http://www.w3.org/1999/xlink" width="140" height="69.933" viewBox="0 0 140 69.933">
  <defs>
    <clipPath id="clip-path">
      <rect id="Rectangle_205" data-name="Rectangle 205" width="140" height="69.933" fill="none"/>
    </clipPath>
  </defs>
  <g id="Group_131423" data-name="Group 131423" clip-path="url(#clip-path)">
    <path id="Path_131527" data-name="Path 131527" d="M8.733.933a7.942,7.942,0,0,0-7.8,7.8V61.2a7.81,7.81,0,0,0,7.8,7.8H131.267a7.809,7.809,0,0,0,7.8-7.8V8.733a7.809,7.809,0,0,0-7.8-7.8Zm122.533,69H8.733A8.763,8.763,0,0,1,0,61.2V8.733A8.763,8.763,0,0,1,8.733,0H131.267A8.763,8.763,0,0,1,140,8.733V61.2a8.763,8.763,0,0,1-8.733,8.733" fill="#fff"/>
    <path id="Path_131528" data-name="Path 131528" d="M28.136,57.925h-2.8l1.33-5.137Zm-4.87,3.4H24.4l.667-2.335H28.4l.6,2.335h1.263l-2.8-9.671H26Z" fill="#fff"/>
    <path id="Path_131529" data-name="Path 131529" d="M33.667,56.837A1.243,1.243,0,0,1,35,57.9v.2a10.429,10.429,0,0,0,.334,3.2h1.13a16.522,16.522,0,0,1-.334-2.535c-.067-1.935-.4-2.335-1.4-2.468a2.1,2.1,0,0,0,1.6-2.2c0-1.2-.534-2.4-2.068-2.4h-3V61.37H32.4V56.9ZM32.4,52.7h1.666c.867,0,1.2.8,1.2,1.468,0,.867-.4,1.6-1.2,1.6H32.4Z" fill="#fff"/>
    <path id="Path_131530" data-name="Path 131530" d="M52.068,56.837A1.243,1.243,0,0,1,53.4,57.9v.2a10.429,10.429,0,0,0,.334,3.2H54.87c-.133-.867-.267-1.668-.334-2.535-.067-1.935-.4-2.335-1.4-2.468a2.1,2.1,0,0,0,1.6-2.2c0-1.2-.534-2.4-2.068-2.4H49.6V61.37h1.134V56.9ZM50.734,52.7H52.4c.867,0,1.2.8,1.2,1.468,0,.867-.4,1.6-1.2,1.6H50.734Z" fill="#fff"/>
    <path id="Path_131531" data-name="Path 131531" d="M62.132,61.307h2c1.534,0,2.4-.4,2.869-1.268a9.429,9.429,0,0,0,.534-3.869,12.135,12.135,0,0,0-.4-3.069A2.334,2.334,0,0,0,64.8,51.636H62.132ZM63.266,52.7h1.466c1.134,0,1.668.734,1.668,2.669v1.935c0,2.268-.534,2.869-2.135,2.869H63.2Z" fill="#fff"/>
    <path id="Path_131532" data-name="Path 131532" d="M88.067,56.837A1.243,1.243,0,0,1,89.4,57.9v.2a10.429,10.429,0,0,0,.334,3.2h1.134c-.133-.867-.267-1.668-.334-2.535-.067-1.935-.4-2.335-1.4-2.468a2.1,2.1,0,0,0,1.6-2.2c0-1.2-.534-2.4-2.068-2.4H85.6V61.37h1.134V56.9ZM86.733,52.7H88.4c.867,0,1.2.8,1.2,1.468,0,.867-.4,1.6-1.2,1.6H86.731Z" fill="#fff"/>
    <path id="Path_131533" data-name="Path 131533" d="M113.266,60.439c-1.067,0-1.6-.534-1.6-2.669V54.5c0-2,1.268-2.068,1.6-2.068s1.6.067,1.6,2.068v3.269c0,2.135-.534,2.669-1.6,2.669m0,1.067c1.868,0,2.735-1.067,2.735-3.736v-3.2c0-1.935-.867-3.135-2.735-3.135s-2.735,1.2-2.735,3.135v3.2c0,2.669.867,3.736,2.735,3.736" fill="#fff"/>
    <path id="Path_131534" data-name="Path 131534" d="M120.185,56.837a1.243,1.243,0,0,1,1.334,1.067v.2a10.429,10.429,0,0,0,.334,3.2h1.132c-.133-.867-.267-1.668-.334-2.535-.067-1.935-.4-2.335-1.4-2.468a2.1,2.1,0,0,0,1.6-2.2c0-1.2-.534-2.4-2.068-2.4h-3v9.673h1.134V56.9ZM118.852,52.7h1.668c.867,0,1.2.8,1.2,1.468,0,.867-.4,1.6-1.2,1.6h-1.668Z" fill="#fff"/>
    <path id="Path_131535" data-name="Path 131535" d="M17.479,41.384h1.668l-1.868-2.736c.467-.867.734-2,.734-4.8H16.679a16.376,16.376,0,0,1-.2,3.6l-2.272-3.14a5.092,5.092,0,0,0,1.938-3.4A2.433,2.433,0,0,0,13.9,28.3a2.5,2.5,0,0,0-.424.006c-1.4,0-2.8.667-2.8,2.535a5.571,5.571,0,0,0,1.531,3.2c-1.534,1-2.6,1.8-2.6,3.936a3.5,3.5,0,0,0,3.313,3.678,3.6,3.6,0,0,0,.487-.009,3.646,3.646,0,0,0,3.2-1.6Zm-4.072-8.076c-.464-.73-1.265-1.464-1.265-2.331a1.284,1.284,0,0,1,1.162-1.4l.038,0h.065a1.23,1.23,0,0,1,1.268,1.4,3.552,3.552,0,0,1-1.268,2.331m2.4,5.671a2.449,2.449,0,0,1-2.335,1.268,2.237,2.237,0,0,1-2.331-2.132v-.2c0-1.468.867-2.135,1.868-2.935Z" fill="#fff"/>
    <path id="Path_131536" data-name="Path 131536" d="M25.6,41.384V35.775h1.932c1.2,0,3.2-.6,3.2-3.536,0-3-1.668-3.669-3.2-3.669h-3.4V41.384Zm0-11.408h2c.334,0,1.6.2,1.6,2.135A1.922,1.922,0,0,1,27.586,34.3a1.962,1.962,0,0,1-.453.014H25.6Z" fill="#fff"/>
    <path id="Path_131537" data-name="Path 131537" d="M37.265,36.868H33.6l1.8-6.8Zm-6.4,4.47h1.468l.867-3.069h4.465l.8,3.069h1.668L36.4,28.529H34.534Z" fill="#fff"/>
    <path id="Path_131538" data-name="Path 131538" d="M44.756,35.492a1.618,1.618,0,0,1,1.735,1.4v.267c.133,1.668,0,3.336.467,4.27h1.529a28.324,28.324,0,0,1-.4-3.336c-.067-2.535-.534-3.069-1.868-3.269v-.067a2.744,2.744,0,0,0,2.139-2.936c0-1.6-.734-3.2-2.735-3.2H41.687V41.43h1.468V35.559h1.6Zm-1.735-5.471h2.2c1.134,0,1.534,1,1.534,1.935,0,1.134-.534,2.135-1.534,2.135h-2.2Z" fill="#fff"/>
    <path id="Path_131539" data-name="Path 131539" d="M79.753,35.492a1.618,1.618,0,0,1,1.735,1.4v.267c.133,1.668,0,3.336.467,4.27h1.534a28.326,28.326,0,0,1-.4-3.336c-.065-2.534-.536-3.072-1.866-3.272v-.067a2.744,2.744,0,0,0,2.13-2.933c0-1.6-.734-3.2-2.735-3.2H76.553V41.43h1.468V35.559h1.732Zm-1.732-5.471h2.2c1.134,0,1.534,1,1.534,1.935,0,1.134-.534,2.135-1.534,2.135h-2.2Z" fill="#fff"/>
    <path id="Path_131540" data-name="Path 131540" d="M17.9,23.106H20.57c2,0,3.135-.534,3.8-1.668.467-.867.667-2.4.667-5.137a15.027,15.027,0,0,0-.536-4.068A2.971,2.971,0,0,0,21.437,10.3H17.9ZM19.369,11.7H21.3c1.534,0,2.268.934,2.268,3.536v2.6c0,3-.734,3.8-2.8,3.8h-1.4Z" fill="#fff"/>
    <path id="Path_131541" data-name="Path 131541" d="M46.264,18.613H42.6l1.8-6.8Zm-6.4,4.47h1.468l.867-3.069h4.465l.8,3.069h1.668L45.4,10.274H43.533Z" fill="#fff"/>
    <path id="Path_131542" data-name="Path 131542" d="M53.725,17.17a1.618,1.618,0,0,1,1.735,1.4v.267c.133,1.735,0,3.336.467,4.27h1.536a28.325,28.325,0,0,1-.4-3.336C57,17.237,56.525,16.7,55.195,16.5v-.062a2.744,2.744,0,0,0,2.13-2.938c-.062-1.6-.8-3.2-2.864-3.2H50.525V23.108h1.468V17.237h1.732ZM51.993,11.7h2.2c1.132,0,1.532,1,1.532,1.936,0,1.134-.53,2.134-1.531,2.134h-2.2Z" fill="#fff"/>
    <path id="Path_131543" data-name="Path 131543" d="M59.325,23.106h2.669c2,0,3.135-.534,3.8-1.668.467-.867.734-2.4.734-5.137a15.038,15.038,0,0,0-.534-4.069A3.107,3.107,0,0,0,62.861,10.3H59.325ZM60.793,11.7h1.932c1.534,0,2.268.934,2.268,3.536v2.6c0,3-.734,3.8-2.8,3.8h-1.4Z" fill="#fff"/>
    <path id="Path_131544" data-name="Path 131544" d="M96,18.613H92.326l1.8-6.8Zm-6.4,4.47h1.468l.867-3.069H96.4l.8,3.069h1.668L95.132,10.274H93.264Z" fill="#fff"/>
    <path id="Path_131545" data-name="Path 131545" d="M103.445,17.17a1.618,1.618,0,0,1,1.735,1.4v.267a17.24,17.24,0,0,0,.467,4.27h1.536a28.326,28.326,0,0,1-.4-3.336c-.067-2.534-.538-3.072-1.868-3.272v-.062a2.744,2.744,0,0,0,2.13-2.938c-.062-1.6-.8-3.2-2.864-3.2h-3.936V23.108h1.468V17.237h1.732ZM101.713,11.7h2.2c1.132,0,1.532,1,1.532,1.936,0,1.134-.53,2.134-1.531,2.134h-2.2Z" fill="#fff"/>
    <rect id="Rectangle_204" data-name="Rectangle 204" width="119.319" height="0.534" transform="translate(10.474 46.666)" fill="#fff"/>
    <path id="Path_131546" data-name="Path 131546" d="M15.253,54.3c.13-1.869-.534-2.869-2.27-2.869s-2.8.8-2.8,3.536V57.7c0,3.736,1.668,3.8,2.735,3.8.534,0,2.535,0,2.468-3.069H14.252c0,1.868-1.067,2-1.4,2-.867,0-1.534-.267-1.534-2.669V55.227c0-1.668.2-1.935.267-2a1.348,1.348,0,0,1,1.334-.734,1.361,1.361,0,0,1,1,.4,3.257,3.257,0,0,1,.2,1.4Z" fill="#fff"/>
    <path id="Path_131547" data-name="Path 131547" d="M18.012,61.327v-4.4h3.066v4.4h1.134V51.654H21.078v4.2H18.012v-4.2H16.878v9.673Z" fill="#fff"/>
    <path id="Path_131548" data-name="Path 131548" d="M37.066,51.654v1.067h2.268v8.606h1.132V52.721h2.268V51.654Z" fill="#fff"/>
    <path id="Path_131549" data-name="Path 131549" d="M48.335,61.327V60.26H44.866V56.924H48v-1.07H44.866V52.721h3.4V51.654H43.8v9.673Z" fill="#fff"/>
    <path id="Path_131550" data-name="Path 131550" d="M60.8,61.327V60.26H57.332V56.924h3.136v-1.07H57.332V52.721h3.336V51.654H56.2v9.673Z" fill="#fff"/>
    <path id="Path_131551" data-name="Path 131551" d="M71.6,58.429c0,.934,0,3.135,2.535,3.069A2.415,2.415,0,0,0,76.8,59.36a2.357,2.357,0,0,0,0-.531c.07-3.065-3.866-2.8-3.866-4.933a1.27,1.27,0,0,1,1.126-1.4h.208c1.068,0,1.332.666,1.332,1.733h1.137c.133-1.934-.8-2.8-2.4-2.8A2.4,2.4,0,0,0,71.8,53.687v.342c0,2.935,3.936,2.669,3.936,4.8a1.41,1.41,0,0,1-1.2,1.534H74.2c-.734,0-1.468-.4-1.468-1.735v-.262Z" fill="#fff"/>
    <path id="Path_131552" data-name="Path 131552" d="M78.395,57.765c0,2.669.867,3.736,2.735,3.736s2.735-1.068,2.735-3.736V51.627H82.731v6.2c0,2.135-.6,2.669-1.6,2.669s-1.6-.534-1.6-2.669v-6.2H78.395Z" fill="#fff"/>
    <path id="Path_131553" data-name="Path 131553" d="M97.8,51.654h-1.13L94.6,60.127l-2-8.473H91.4l2.535,9.673h1.334Z" fill="#fff"/>
    <path id="Path_131554" data-name="Path 131554" d="M103.334,61.327V60.26H99.865V56.924H103v-1.07H99.863V52.721h3.4V51.654H98.8v9.673Z" fill="#fff"/>
    <path id="Path_131555" data-name="Path 131555" d="M106.732,56.324l-1.668-4.67H103.8l2.335,6v3.669h1.134V57.654l2.4-6h-1.134Z" fill="#fff"/>
    <path id="Path_131556" data-name="Path 131556" d="M124.1,58.429c0,.934,0,3.135,2.535,3.069A2.415,2.415,0,0,0,129.3,59.36a2.357,2.357,0,0,0,0-.531c.07-3.065-3.866-2.8-3.866-4.933a1.27,1.27,0,0,1,1.126-1.4h.208c1.068,0,1.332.666,1.332,1.733h1.137c.133-1.934-.8-2.8-2.4-2.8a2.4,2.4,0,0,0-2.534,2.258V54.1c0,2.933,3.936,2.668,3.936,4.8a1.41,1.41,0,0,1-1.2,1.53H126.7c-.732,0-1.466-.4-1.466-1.73v-.27Z" fill="#fff"/>
    <path id="Path_131557" data-name="Path 131557" d="M49.265,28.6V30h3V41.338h1.47V30h3V28.6Z" fill="#fff"/>
    <path id="Path_131558" data-name="Path 131558" d="M64.869,28.6V39.537L60.4,28.6H58.331V41.338h1.334V30.264l4.466,11.074h2V28.6Z" fill="#fff"/>
    <path id="Path_131559" data-name="Path 131559" d="M74.731,41.338v-1.4H70.195v-4.4h4.136v-1.4H70.195V30h4.47V28.6H68.731V41.338Z" fill="#fff"/>
    <path id="Path_131560" data-name="Path 131560" d="M85.018,37.579c0,1.2,0,4.069,3.336,4.069,1.868,0,3.536-.867,3.536-3.536,0-4.069-5.137-3.669-5.137-6.471a1.827,1.827,0,0,1,1.534-1.935h.267c1.4,0,1.8.934,1.8,2.335h1.535c.067-2.6-1.134-3.735-3.2-3.735a3.2,3.2,0,0,0-3.4,3.469c0,3.869,5.131,3.531,5.131,6.338a1.865,1.865,0,0,1-1.6,2.068h-.464c-.934,0-1.935-.534-1.935-2.268v-.4h-1.4Z" fill="#fff"/>
    <path id="Path_131561" data-name="Path 131561" d="M16.078,23.082v-1.4H11.541v-4.4h4.136v-1.4H11.541V11.74h4.466v-1.4h-6V23.149h6.071Z" fill="#fff"/>
    <path id="Path_131562" data-name="Path 131562" d="M29.066,23.083h1.8L33.2,12.009l2.2,11.074h1.8l3.073-12.809h-1.6L36.338,21.348,34.27,10.274H32.4L30,21.415,27.865,10.341H26.331Z" fill="#fff"/>
    <path id="Path_131563" data-name="Path 131563" d="M78.832,13.834c.2-2.468-.734-3.8-3-3.8s-3.671,1-3.671,4.67v3.6c0,4.937,2.2,5.07,3.6,5.07.734,0,3.336,0,3.269-4H77.5c0,2.468-1.4,2.669-1.8,2.669-1.134,0-2.068-.4-2.068-3.536V15.034c0-2.2.267-2.535.334-2.669a1.757,1.757,0,0,1,1.735-1,1.825,1.825,0,0,1,1.262.537,3.591,3.591,0,0,1,.334,1.868Z" fill="#fff"/>
    <path id="Path_131564" data-name="Path 131564" d="M82.6,23.083V17.212h4v5.871h1.468V10.274H86.6v5.537h-4V10.274h-1.47V23.083Z" fill="#fff"/>
    <path id="Path_131565" data-name="Path 131565" d="M114.735,23.082v-1.4h-4.2V10.34h-1.471V23.149h5.671Z" fill="#fff"/>
    <path id="Path_131566" data-name="Path 131566" d="M121.983,23.082v-1.4h-4.536v-4.4h4.136v-1.4h-4.136V11.74h4.47v-1.4h-5.934V23.149h6Z" fill="#fff"/>
    <path id="Path_131567" data-name="Path 131567" d="M123.459,19.306c0,1.2,0,4.069,3.336,4.069,1.868,0,3.536-.867,3.536-3.536,0-4.069-5.137-3.669-5.137-6.471a1.784,1.784,0,0,1,1.534-1.935H127c1.4,0,1.8.934,1.8,2.335h1.535c.067-2.6-1.134-3.735-3.2-3.735a3.2,3.2,0,0,0-3.4,3.469c0,3.869,5.131,3.531,5.131,6.338a1.865,1.865,0,0,1-1.6,2.068h-.464c-.934,0-1.935-.534-1.935-2.268v-.4Z" fill="#fff"/>
    <path id="Path_131568" data-name="Path 131568" d="M110.313,41h1.8l2.335-11.074h.067L116.715,41h1.8L121.588,28.2h-1.534L117.718,39.27,115.65,28.2h-1.872L111.443,39.27,109.312,28.2h-1.534Z" fill="#fff"/>
    <path id="Path_131569" data-name="Path 131569" d="M129.9,28.681h-1.267a20.029,20.029,0,0,1-1.868,1.468v1.532l1.668-1.265V40.889H129.9Z" fill="#fff"/>
  </g>
</svg>
