<svg id="Group_131385" data-name="Group 131385" xmlns="http://www.w3.org/2000/svg" xmlns:xlink="http://www.w3.org/1999/xlink" width="990.371" height="175.811" viewBox="0 0 990.371 175.811">
  <defs>
    <clipPath id="clip-path">
      <rect id="Rectangle_89" data-name="Rectangle 89" width="990.371" height="175.811" fill="none"/>
    </clipPath>
  </defs>
  <g id="Group_131384" data-name="Group 131384" clip-path="url(#clip-path)">
    <path id="Path_131359" data-name="Path 131359" d="M3.138,4.958H.738A.738.738,0,0,0,0,5.7v168.7a.738.738,0,0,0,.738.737h2.4a.738.738,0,0,0,.737-.737V5.7a.738.738,0,0,0-.737-.737" transform="translate(0 -2.136)" fill="#fff"/>
    <path id="Path_131360" data-name="Path 131360" d="M173.981,4.958h-2.4a.738.738,0,0,0-.738.737v168.7a.738.738,0,0,0,.738.737h2.4a.738.738,0,0,0,.737-.737V5.7a.738.738,0,0,0-.737-.737" transform="translate(-73.603 -2.136)" fill="#fff"/>
    <path id="Path_131361" data-name="Path 131361" d="M123.843,178.278h-2.4a.738.738,0,0,0-.738.737v70.046a.738.738,0,0,0,.738.737h2.4a.738.738,0,0,0,.737-.737V179.015a.738.738,0,0,0-.737-.737" transform="translate(-52.002 -76.806)" fill="#fff"/>
    <path id="Path_131362" data-name="Path 131362" d="M53.277,178.278h-2.4a.738.738,0,0,0-.738.737v70.046a.738.738,0,0,0,.738.737h2.4a.738.738,0,0,0,.737-.737V179.015a.738.738,0,0,0-.737-.737" transform="translate(-21.601 -76.806)" fill="#fff"/>
    <path id="Path_131363" data-name="Path 131363" d="M65.081,178.278h-2.4a.737.737,0,0,0-.733.825l8.406,70.045a.737.737,0,0,0,.733.65h2.4a.737.737,0,0,0,.733-.825l-8.406-70.047a.738.738,0,0,0-.732-.648" transform="translate(-26.688 -76.806)" fill="#fff"/>
    <path id="Path_131364" data-name="Path 131364" d="M105.675,178.278h-2.4a.738.738,0,0,0-.732.649L94.14,248.973a.736.736,0,0,0,.732.825h2.4a.739.739,0,0,0,.733-.649l8.405-70.046a.737.737,0,0,0-.732-.825" transform="translate(-40.555 -76.806)" fill="#fff"/>
    <path id="Path_131365" data-name="Path 131365" d="M70.017,4.958h-2.4a.736.736,0,0,0-.735.79l5.606,77.093v0a.742.742,0,0,0,.735.682h2.4a.738.738,0,0,0,.735-.79L70.752,5.64a.741.741,0,0,0-.735-.682" transform="translate(-28.813 -2.136)" fill="#fff"/>
    <path id="Path_131366" data-name="Path 131366" d="M94.852,83.525h2.4a.739.739,0,0,0,.735-.684l5.607-77.094a.738.738,0,0,0-.735-.79h-2.4a.739.739,0,0,0-.735.684L94.117,82.735a.738.738,0,0,0,.735.79" transform="translate(-40.547 -2.136)" fill="#fff"/>
    <path id="Path_131367" data-name="Path 131367" d="M1298.08,4.958h-2.4a.737.737,0,0,0-.736.735v168.7a.737.737,0,0,0,.736.735h2.4a.735.735,0,0,0,.735-.735V5.693a.735.735,0,0,0-.735-.735" transform="translate(-557.887 -2.136)" fill="#fff"/>
    <path id="Path_131368" data-name="Path 131368" d="M1390.6,141.658h-36.787a.529.529,0,0,1-.529-.528V5.694a.735.735,0,0,0-.735-.735h-2.4a.737.737,0,0,0-.737.735v137.2a2.646,2.646,0,0,0,2.643,2.643H1390.6a.736.736,0,0,0,.735-.735v-2.4a.736.736,0,0,0-.735-.736" transform="translate(-581.355 -2.136)" fill="#fff"/>
    <path id="Path_131369" data-name="Path 131369" d="M1390.6,297.123h-40.456a.737.737,0,0,0-.736.736v2.4a.736.736,0,0,0,.736.735H1390.6a.736.736,0,0,0,.735-.735v-2.4a.736.736,0,0,0-.735-.736" transform="translate(-581.355 -128.007)" fill="#fff"/>
    <path id="Path_131370" data-name="Path 131370" d="M1555.506,56.954H1535.28a2.645,2.645,0,0,0-2.642,2.642v105.7a2.645,2.645,0,0,0,2.642,2.642h20.226a.738.738,0,0,0,.737-.737v-2.4a.739.739,0,0,0-.737-.738h-18.465a.53.53,0,0,1-.529-.528V61.358a.53.53,0,0,1,.529-.528h18.465a.738.738,0,0,0,.737-.738v-2.4a.738.738,0,0,0-.737-.737" transform="translate(-660.293 -24.537)" fill="#fff"/>
    <path id="Path_131371" data-name="Path 131371" d="M1446.714,167.934h20.226a2.645,2.645,0,0,0,2.643-2.642V59.6a2.645,2.645,0,0,0-2.643-2.642h-20.226a.737.737,0,0,0-.736.737v2.4a.738.738,0,0,0,.736.738h18.465a.529.529,0,0,1,.529.528V163.53a.529.529,0,0,1-.529.528h-18.465a.738.738,0,0,0-.736.738v2.4a.737.737,0,0,0,.736.737" transform="translate(-622.958 -24.537)" fill="#fff"/>
    <path id="Path_131372" data-name="Path 131372" d="M1518.171,297.123h-71.457a.738.738,0,0,0-.736.738v2.4a.737.737,0,0,0,.736.737h71.457a.738.738,0,0,0,.737-.737v-2.4a.738.738,0,0,0-.737-.738" transform="translate(-622.958 -128.007)" fill="#fff"/>
    <path id="Path_131373" data-name="Path 131373" d="M1518.171,4.958h-71.457a.737.737,0,0,0-.736.737V8.1a.738.738,0,0,0,.736.738h71.457a.738.738,0,0,0,.737-.738V5.7a.738.738,0,0,0-.737-.737" transform="translate(-622.958 -2.136)" fill="#fff"/>
    <path id="Path_131374" data-name="Path 131374" d="M400.474,56.954H374.619a.745.745,0,0,0-.744.744v2.388a.745.745,0,0,0,.744.744h24.094a.529.529,0,0,1,.528.528V196.786a.744.744,0,0,0,.744.743h2.387a.745.745,0,0,0,.745-.743V59.6a2.646,2.646,0,0,0-2.643-2.642" transform="translate(-161.073 -24.537)" fill="#fff"/>
    <path id="Path_131375" data-name="Path 131375" d="M501.412,56.954H475.556a2.645,2.645,0,0,0-2.642,2.642v137.19a.744.744,0,0,0,.743.743h2.387a.745.745,0,0,0,.745-.743V61.358a.529.529,0,0,1,.528-.528h24.1a.746.746,0,0,0,.745-.744V57.7a.745.745,0,0,0-.745-.744" transform="translate(-203.741 -24.537)" fill="#fff"/>
    <path id="Path_131376" data-name="Path 131376" d="M811.7,51.454V164.9a.529.529,0,0,1-.529.529h-11.98a.529.529,0,0,1-.528-.529V51.454a.529.529,0,0,1,.528-.528h11.98a.529.529,0,0,1,.529.528m3.875,115.209V49.692a2.646,2.646,0,0,0-2.643-2.642h-15.5a2.646,2.646,0,0,0-2.643,2.642V166.663a2.645,2.645,0,0,0,2.643,2.642h15.5a2.645,2.645,0,0,0,2.643-2.642" transform="translate(-342.413 -20.27)" fill="#fff"/>
    <path id="Path_131377" data-name="Path 131377" d="M770.58,171.938A29.176,29.176,0,0,1,741.719,142.8V33.019A29.176,29.176,0,0,1,770.58,3.883a.739.739,0,0,0,.734-.736V.751a.745.745,0,0,0-.746-.744h0a33.058,33.058,0,0,0-32.72,33.012V142.8a33.061,33.061,0,0,0,32.724,33.012.747.747,0,0,0,.746-.746v-2.395a.737.737,0,0,0-.734-.736" transform="translate(-317.879 -0.003)" fill="#fff"/>
    <path id="Path_131378" data-name="Path 131378" d="M830.2.007h0a.745.745,0,0,0-.745.744v2.4a.738.738,0,0,0,.733.736A29.176,29.176,0,0,1,859.05,33.019V142.767a29.194,29.194,0,0,1-28.858,29.172.736.736,0,0,0-.736.736v2.395a.747.747,0,0,0,.749.746,33.078,33.078,0,0,0,32.72-33.048V33.019A33.058,33.058,0,0,0,830.2.007" transform="translate(-357.347 -0.003)" fill="#fff"/>
    <path id="Path_131379" data-name="Path 131379" d="M1180.624,51.454V164.9a.529.529,0,0,1-.528.529h-11.98a.53.53,0,0,1-.529-.529V51.454a.529.529,0,0,1,.529-.528h11.98a.529.529,0,0,1,.528.528m3.875,115.209V49.692a2.645,2.645,0,0,0-2.642-2.642h-15.5a2.645,2.645,0,0,0-2.643,2.642V166.663a2.645,2.645,0,0,0,2.643,2.642h15.5a2.645,2.645,0,0,0,2.642-2.642" transform="translate(-501.352 -20.27)" fill="#fff"/>
    <path id="Path_131380" data-name="Path 131380" d="M1139.5,171.935a29.176,29.176,0,0,1-28.862-29.136V33.016A29.176,29.176,0,0,1,1139.5,3.88a.739.739,0,0,0,.735-.736V.749a.739.739,0,0,0-.22-.527.669.669,0,0,0-.529-.217,33.058,33.058,0,0,0-32.72,33.012V142.8a33.061,33.061,0,0,0,32.723,33.012.747.747,0,0,0,.747-.746v-2.395a.736.736,0,0,0-.733-.736" transform="translate(-476.818 0)" fill="#fff"/>
    <path id="Path_131381" data-name="Path 131381" d="M1199.126.007h0a.746.746,0,0,0-.745.744v2.4a.738.738,0,0,0,.733.736,29.176,29.176,0,0,1,28.862,29.137V142.767a29.194,29.194,0,0,1-28.858,29.172.737.737,0,0,0-.736.736v2.395a.747.747,0,0,0,.749.746,33.078,33.078,0,0,0,32.72-33.048V33.019A33.059,33.059,0,0,0,1199.126.007" transform="translate(-516.286 -0.003)" fill="#fff"/>
    <path id="Path_131382" data-name="Path 131382" d="M584.208,8.092V5.7a.742.742,0,0,0-.741-.742H554.789A2.645,2.645,0,0,0,552.147,7.6V174.387a.742.742,0,0,0,.742.741h2.392a.741.741,0,0,0,.74-.741V9.363a.529.529,0,0,1,.529-.529h26.916a.742.742,0,0,0,.741-.742" transform="translate(-237.877 -2.136)" fill="#fff"/>
    <path id="Path_131383" data-name="Path 131383" d="M609.752,178.278H607.36a.742.742,0,0,0-.742.741v70.038a.742.742,0,0,0,.742.741h2.392a.742.742,0,0,0,.741-.741V179.019a.742.742,0,0,0-.741-.741" transform="translate(-261.344 -76.806)" fill="#fff"/>
    <path id="Path_131384" data-name="Path 131384" d="M624.653,178.278h-2.39a.74.74,0,0,0-.736.829l8.4,70.039h0a.742.742,0,0,0,.736.651h2.391a.74.74,0,0,0,.736-.829l-8.4-70.04a.742.742,0,0,0-.737-.651" transform="translate(-267.765 -76.806)" fill="#fff"/>
    <path id="Path_131385" data-name="Path 131385" d="M623.53,51.454v45.8a.529.529,0,0,1-.528.529H611.022a.529.529,0,0,1-.529-.529v-45.8a.529.529,0,0,1,.529-.528H623a.529.529,0,0,1,.528.528m1.233-4.4h-15.5a2.646,2.646,0,0,0-2.642,2.642V99.018a2.646,2.646,0,0,0,2.642,2.642h15.5a2.645,2.645,0,0,0,2.642-2.642V49.692a2.645,2.645,0,0,0-2.642-2.642" transform="translate(-261.344 -20.27)" fill="#fff"/>
    <path id="Path_131386" data-name="Path 131386" d="M647.938,4.958h-5.916a.742.742,0,0,0-.742.741V8.092a.743.743,0,0,0,.742.742h5.916a21.553,21.553,0,0,1,21.528,21.528V75.246a21.38,21.38,0,0,1-14.047,20.045.734.734,0,0,0-.473.825l14.5,78.406a.741.741,0,0,0,.729.606h2.387a.742.742,0,0,0,.729-.874L659.4,97.769a25.348,25.348,0,0,0,13.937-22.524V30.362a25.432,25.432,0,0,0-25.4-25.4" transform="translate(-276.277 -2.136)" fill="#fff"/>
    <path id="Path_131387" data-name="Path 131387" d="M986.105,178.278h-2.4a.737.737,0,0,0-.736.736v70.048a.737.737,0,0,0,.736.736h2.4a.737.737,0,0,0,.736-.736V179.014a.737.737,0,0,0-.736-.736" transform="translate(-423.482 -76.806)" fill="#fff"/>
    <path id="Path_131388" data-name="Path 131388" d="M999.877,51.454v45.8a.529.529,0,0,1-.528.529H987.37a.529.529,0,0,1-.529-.529v-45.8a.529.529,0,0,1,.529-.528h11.98a.529.529,0,0,1,.528.528m3.875,47.563V49.693a2.645,2.645,0,0,0-2.643-2.643h-15.5a2.645,2.645,0,0,0-2.643,2.643V99.018a2.645,2.645,0,0,0,2.643,2.642h15.5a2.645,2.645,0,0,0,2.643-2.642" transform="translate(-423.482 -20.27)" fill="#fff"/>
    <path id="Path_131389" data-name="Path 131389" d="M1024.294,4.958h-5.927a.737.737,0,0,0-.736.736V8.1a.738.738,0,0,0,.736.737h5.927a21.547,21.547,0,0,1,21.523,21.523V82.083a21.547,21.547,0,0,1-21.523,21.524h-5.927a.737.737,0,0,0-.736.737v2.4a.737.737,0,0,0,.736.736h5.927a25.426,25.426,0,0,0,25.4-25.4V30.356a25.426,25.426,0,0,0-25.4-25.4" transform="translate(-438.417 -2.136)" fill="#fff"/>
    <path id="Path_131390" data-name="Path 131390" d="M1683.968,99.272l-17.315-19.179c-7.476-8.3-8.844-13.371-8.844-20.362l.012-10.753a.529.529,0,0,1,.529-.528h7.754a.53.53,0,0,1,.528.529v24.8a.741.741,0,0,0,.74.74h2.395a.741.741,0,0,0,.74-.74V47.216a2.645,2.645,0,0,0-2.643-2.642H1656.59a2.645,2.645,0,0,0-2.642,2.639l-.014,12.515c0,9,2.484,14.79,9.841,22.959l17.306,19.169c15.1,16.966,17.965,27.782,17.965,41.807v7.9c0,29.808-15.742,37.961-28.952,39.551a.739.739,0,0,0-.643.732v2.4a.746.746,0,0,0,.747.743.542.542,0,0,0,.085-.006c21.048-2.479,32.639-17.9,32.639-43.423v-7.9c0-14.631-3.1-26.585-18.953-44.392" transform="translate(-712.549 -19.203)" fill="#fff"/>
    <path id="Path_131391" data-name="Path 131391" d="M1627.017,255.643c-17.095-2.159-26.131-13.661-26.131-33.262V195.111a.741.741,0,0,0-.74-.74h-2.395a.741.741,0,0,0-.74.74V222.38c0,21.572,10.588,34.76,29.817,37.137a.654.654,0,0,0,.089.005.746.746,0,0,0,.746-.743v-2.406a.74.74,0,0,0-.646-.731" transform="translate(-688.026 -83.739)" fill="#fff"/>
    <path id="Path_131392" data-name="Path 131392" d="M1681.889,3.907c18.587,1.192,26.168,10.17,26.168,30.982l-.084,19.691a.74.74,0,0,0,.737.746l2.4.01h0a.743.743,0,0,0,.74-.737l.084-19.7c0-22.8-9.235-33.556-29.945-34.866a.754.754,0,0,0-.556.2.746.746,0,0,0-.235.54v2.4a.741.741,0,0,0,.693.737" transform="translate(-724.295 -0.013)" fill="#fff"/>
    <path id="Path_131393" data-name="Path 131393" d="M1647.045,145.014l.058-14.442c0-12.231-.845-17.41-10.307-27.484l-17.56-19.2c-13.192-13.995-15.894-26.541-15.894-41.073V35.6c0-18.289,10.037-29.838,27.534-31.683a.735.735,0,0,0,.664-.733V.79a.747.747,0,0,0-.823-.74c-19.568,2.022-31.25,15.311-31.25,35.549v7.219c0,18.289,4.906,30.955,16.928,43.71l17.561,19.2c8.823,9.392,9.272,13.717,9.272,24.838l-.052,12.678a.529.529,0,0,1-.528.527h-10.58a.53.53,0,0,1-.529-.528v-31.85a.741.741,0,0,0-.74-.74H1628.4a.741.741,0,0,0-.74.74V145a2.644,2.644,0,0,0,2.642,2.642h14.1a2.646,2.646,0,0,0,2.642-2.631" transform="translate(-689.084 -0.02)" fill="#fff"/>
    <path id="Path_131394" data-name="Path 131394" d="M960.556,8.092V5.7a.742.742,0,0,0-.741-.742H931.137A2.645,2.645,0,0,0,928.495,7.6V174.387a.742.742,0,0,0,.741.741h2.393a.742.742,0,0,0,.741-.741V9.363a.529.529,0,0,1,.528-.529h26.916a.742.742,0,0,0,.741-.742" transform="translate(-400.015 -2.136)" fill="#fff"/>
    <path id="Path_131395" data-name="Path 131395" d="M213.6,4.958h-2.4a.738.738,0,0,0-.738.737v168.7a.738.738,0,0,0,.738.737h2.4a.738.738,0,0,0,.737-.737V5.7a.738.738,0,0,0-.737-.737" transform="translate(-90.67 -2.136)" fill="#fff"/>
    <path id="Path_131396" data-name="Path 131396" d="M458.744,4.958H374.619a.745.745,0,0,0-.744.744V8.09a.745.745,0,0,0,.744.744h84.125a.746.746,0,0,0,.745-.744V5.7a.745.745,0,0,0-.745-.744" transform="translate(-161.073 -2.136)" fill="#fff"/>
    <path id="Path_131397" data-name="Path 131397" d="M265.674,8.834h40.438a.745.745,0,0,0,.744-.744V5.7a.745.745,0,0,0-.744-.744H265.674a.745.745,0,0,0-.745.744V8.09a.745.745,0,0,0,.745.744" transform="translate(-114.137 -2.136)" fill="#fff"/>
    <path id="Path_131398" data-name="Path 131398" d="M306.113,297.123H265.675a.745.745,0,0,0-.744.744v2.389a.744.744,0,0,0,.744.743h40.438a.744.744,0,0,0,.744-.743v-2.389a.745.745,0,0,0-.744-.744" transform="translate(-114.138 -128.007)" fill="#fff"/>
    <path id="Path_131399" data-name="Path 131399" d="M306.113,173.325h-38.54a2.645,2.645,0,0,0-2.643,2.642v39.459a2.645,2.645,0,0,0,2.643,2.643h38.54a.745.745,0,0,0,.744-.744v-2.387a.745.745,0,0,0-.744-.744H269.335a.529.529,0,0,1-.529-.528V177.729a.53.53,0,0,1,.529-.529h36.779a.745.745,0,0,0,.744-.744v-2.388a.745.745,0,0,0-.744-.744" transform="translate(-114.138 -74.672)" fill="#fff"/>
    <path id="Path_131400" data-name="Path 131400" d="M306.113,56.954h-38.54a2.646,2.646,0,0,0-2.643,2.642V96.238a2.646,2.646,0,0,0,2.643,2.642h38.54a.745.745,0,0,0,.744-.744V95.748a.745.745,0,0,0-.744-.743H269.335a.529.529,0,0,1-.529-.529V61.358a.529.529,0,0,1,.529-.528h36.779a.745.745,0,0,0,.744-.744V57.7a.745.745,0,0,0-.744-.744" transform="translate(-114.138 -24.537)" fill="#fff"/>
  </g>
</svg>
