<svg id="Group_131542" data-name="Group 131542" xmlns="http://www.w3.org/2000/svg" xmlns:xlink="http://www.w3.org/1999/xlink" width="104.711" height="59.699" viewBox="0 0 104.711 59.699">
  <defs>
    <clipPath id="clip-path">
      <rect id="Rectangle_272" data-name="Rectangle 272" width="104.711" height="59.699" transform="translate(0 0)" fill="none" stroke="#1c4733" stroke-width="2"/>
    </clipPath>
  </defs>
  <g id="Group_131541" data-name="Group 131541" transform="translate(0 0)" clip-path="url(#clip-path)">
    <path id="Path_131656" data-name="Path 131656" d="M4.1,51.16V.5H49.9c14.792,0,26.14,6.282,33.03,10.132s15,8.916,18.035,11.753,4.661,8.105,4.661,11.956-2.229,8.713-5.674,11.753S91.845,51.16,88.4,51.16Z" transform="translate(-2.165 -0.264)" fill="none" stroke="#1c4733" stroke-miterlimit="10" stroke-width="2"/>
    <path id="Path_131657" data-name="Path 131657" d="M155.716,21.948H142.062c0,7.6,4,15.2,12.755,15.2H176.5" transform="translate(-74.952 -11.58)" fill="none" stroke="#1c4733" stroke-miterlimit="10" stroke-width="2"/>
    <path id="Path_131658" data-name="Path 131658" d="M4.1,22.87H50.046c7.806,0,14.279,5.807,14.279,14.762H4.1" transform="translate(-2.165 -12.066)" fill="none" stroke="#1c4733" stroke-miterlimit="10" stroke-width="2"/>
    <line id="Line_157" data-name="Line 157" y2="40.092" transform="translate(42.265 10.804)" fill="none" stroke="#1c4733" stroke-miterlimit="10" stroke-width="2"/>
    <line id="Line_158" data-name="Line 158" y2="40.092" transform="translate(21.037 10.804)" fill="none" stroke="#1c4733" stroke-miterlimit="10" stroke-width="2"/>
    <line id="Line_159" data-name="Line 159" x2="19.099" transform="translate(1.938 43.264)" fill="none" stroke="#1c4733" stroke-miterlimit="10" stroke-width="2"/>
    <line id="Line_160" data-name="Line 160" x2="58.008" transform="translate(42.265 43.264)" fill="none" stroke="#1c4733" stroke-miterlimit="10" stroke-width="2"/>
    <line id="Line_161" data-name="Line 161" x2="3.713" transform="translate(33.412 30.85)" fill="none" stroke="#1c4733" stroke-miterlimit="10" stroke-width="2"/>
    <circle id="Ellipse_8" data-name="Ellipse 8" cx="4.284" cy="4.284" r="4.284" transform="translate(10.471 50.896)" fill="none" stroke="#1c4733" stroke-miterlimit="10" stroke-width="2"/>
    <circle id="Ellipse_9" data-name="Ellipse 9" cx="4.284" cy="4.284" r="4.284" transform="translate(74.893 50.896)" fill="none" stroke="#1c4733" stroke-miterlimit="10" stroke-width="2"/>
    <line id="Line_162" data-name="Line 162" x2="104.711" transform="translate(0 59.463)" fill="none" stroke="#1c4733" stroke-miterlimit="10" stroke-width="2"/>
  </g>
</svg>
