<svg xmlns="http://www.w3.org/2000/svg" width="99.079" height="83.409" viewBox="0 0 99.079 83.409">
  <g id="Group_131493" data-name="Group 131493" transform="translate(0.647 0.647)">
    <g id="Group_131494" data-name="Group 131494">
      <path id="Path_131617" data-name="Path 131617" d="M44.358,57.776h9.289m-18.878,0H19.543v-.014c-.184.006-.367.014-.551.014A18.443,18.443,0,0,1,5.261,51.67m0,0a18.492,18.492,0,0,1,1.5-26.254m0,0a18.6,18.6,0,0,1,2-1.538m0,0a18.393,18.393,0,0,1,8.381-2.994m2.028-10.5a18.494,18.494,0,0,1,32.46-.494,18.487,18.487,0,0,1,30.546,10.7,18.5,18.5,0,0,1,15.4,18.23c0,9.964-7.881,18.523-17.749,18.913v.047H65.243" transform="translate(-0.147 -0.147)" fill="none" stroke="#1c4733" stroke-miterlimit="10" stroke-width="2"/>
      <path id="Path_131618" data-name="Path 131618" d="M79.366,96.167l-6.065,6.1-6.062-6.047m-7.557-6.585-6.065,6.1-6.062-6.048M73.179,75.238V96.813m-19.635-25.9v19.41" transform="translate(-14.028 -20.918)" fill="none" stroke="#1c4733" stroke-miterlimit="10" stroke-width="2"/>
      <path id="Path_131619" data-name="Path 131619" d="M41.8,42.355a7.794,7.794,0,0,1,7.8-8.223c3.575,0,6.145,1.989,6.927,5.028l-1.743.6a4.919,4.919,0,0,0-5.185-3.91c-3.017,0-5.921,2.212-5.921,6.5,0,4.313,2.9,6.525,5.921,6.525a5.283,5.283,0,0,0,5.3-3.977l1.654.6a6.846,6.846,0,0,1-6.95,5.1c-4.023,0-7.8-2.972-7.8-8.246" transform="translate(-12.329 -10.068)" fill="#1c4733"/>
      <path id="Path_131620" data-name="Path 131620" d="M73.281,48.881c3.084,0,5.966-2.212,5.966-6.526,0-4.291-2.882-6.5-5.966-6.5-3.061,0-5.967,2.212-5.967,6.5,0,4.313,2.905,6.526,5.967,6.526m0-14.749a7.8,7.8,0,0,1,7.843,8.223,7.853,7.853,0,1,1-15.687,0,7.816,7.816,0,0,1,7.844-8.223" transform="translate(-19.303 -10.068)" fill="#1c4733"/>
      <path id="Path_131621" data-name="Path 131621" d="M90.229,51.211a2.718,2.718,0,0,1,2.917-2.735A2.6,2.6,0,0,1,96,51.068a3.044,3.044,0,0,1-1.588,2.6L92.741,54.74a2.063,2.063,0,0,0-1.028,1.185h4.336V57.11H90.137a3.826,3.826,0,0,1,2.006-3.36l1.407-.912a2.093,2.093,0,0,0,1.159-1.758A1.45,1.45,0,0,0,93.119,49.6a1.559,1.559,0,0,0-1.628,1.732c0,.118.013.235.027.378l-1.277-.156a3.15,3.15,0,0,1-.013-.339" transform="translate(-26.589 -14.3)" fill="#1c4733"/>
    </g>
  </g>
</svg>
