<svg id="Group_131489" data-name="Group 131489" xmlns="http://www.w3.org/2000/svg" xmlns:xlink="http://www.w3.org/1999/xlink" width="148.028" height="59.247" viewBox="0 0 148.028 59.247">
  <defs>
    <clipPath id="clip-path">
      <rect id="Rectangle_194" data-name="Rectangle 194" width="148.028" height="59.247" fill="#46f95f"/>
    </clipPath>
  </defs>
  <g id="Group_131413" data-name="Group 131413" clip-path="url(#clip-path)">
    <path id="Path_131476" data-name="Path 131476" d="M178.113,4.4a1.777,1.777,0,0,0,1.949-2A1.82,1.82,0,0,0,178.113.345H163.885c-1.447,0-2.054.609-2.054,2.057V35.361c0,1.446.607,2.055,2.054,2.055h14.228a1.819,1.819,0,0,0,1.949-2.055,1.777,1.777,0,0,0-1.949-2H165.887v-12.5h8.673c1.219,0,1.887-.668,1.887-2s-.668-2.055-1.887-2.055h-8.673V4.4Z" transform="translate(-110.087 -0.235)" fill="#46f95f"/>
    <path id="Path_131477" data-name="Path 131477" d="M308.71,1.947C308.263.554,307.819,0,306.483,0s-1.776.554-2.224,1.947L293.812,34.46a1.758,1.758,0,0,0,1.3,2.521,1.913,1.913,0,0,0,2.584-1.19l2.339-7.337h12.891l2.339,7.337a1.931,1.931,0,0,0,2.694,1.23,1.869,1.869,0,0,0,1.246-2.513Zm2.779,22.568h-10l.034-.111h-.034l5-15.294L311.489,24.4h-.037Z" transform="translate(-199.759 0)" fill="#46f95f"/>
    <path id="Path_131478" data-name="Path 131478" d="M406.506.347c-1.4,0-1.554.665-2.389,2.058l-8.34,14.285L387.443,2.4c-.835-1.392-1-2.058-2.391-2.058-1.442,0-2.061.61-2.061,2.058V35.364c0,1.445.618,2.055,2.061,2.055s2-.61,2-2.055V10.016l6.5,10.953c.5.833,1.016,1.724,2.223,1.724S397.5,21.8,398,20.969l6.5-10.953V35.364c0,1.445.554,2.055,2,2.055s2.054-.61,2.054-2.055V2.4c0-1.448-.61-2.058-2.054-2.058" transform="translate(-260.533 -0.236)" fill="#46f95f"/>
    <path id="Path_131479" data-name="Path 131479" d="M245.442,4.4a1.776,1.776,0,0,0,1.948-2A1.819,1.819,0,0,0,245.442.345H231.2c-1.447,0-2.055.609-2.055,2.057V35.361c0,1.446.608,2.055,2.055,2.055h14.238a1.817,1.817,0,0,0,1.948-2.055,1.776,1.776,0,0,0-1.948-2H233.209v-12.5h8.678c1.222,0,1.887-.668,1.887-2s-.666-2.055-1.887-2.055h-8.678V4.4Z" transform="translate(-155.881 -0.235)" fill="#46f95f"/>
    <path id="Path_131480" data-name="Path 131480" d="M97.957,20.873a8.735,8.735,0,0,0,4.947-2.917,10.98,10.98,0,0,0,2.347-7.464c0-5.944-3.858-9.934-9.606-9.934,0,0-9.942.013-10.07.039-1.146.114-1.642.735-1.642,2.031V35.6c0,1.445.613,2.054,2.055,2.054s2-.609,2-2.054V21.017h5.443l8.482,15.473a1.761,1.761,0,0,0,2.791.809c1.266-.694,1.462-1.5.765-2.765ZM88,16.939V4.613h7.646c3.529,0,5.552,2.142,5.552,5.88a6.638,6.638,0,0,1-1.378,4.831,4.632,4.632,0,0,1-3.831,1.614Z" transform="translate(-57.096 -0.38)" fill="#46f95f"/>
    <path id="Path_131481" data-name="Path 131481" d="M20.706,18.3c.181-.181.361-.367.536-.56,2.712-3.012,2.346-7.463,2.346-7.463,0-5.945-3.86-9.935-9.606-9.935H4.308A2.026,2.026,0,0,0,2.28,2.366V35.276A2.026,2.026,0,0,0,4.308,37.3H15.4C21.142,37.3,25,33.314,25,27.37c0,0,.406-4.412-2.347-7.464A11.875,11.875,0,0,0,20.706,18.3M6.336,4.393h7.646c3.526,0,5.549,2.144,5.549,5.881A6.982,6.982,0,0,1,18.156,15.1a4.831,4.831,0,0,1-3.831,1.686H6.336ZM15.4,33.247H6.336v-12.4h9.4a4.745,4.745,0,0,1,3.831,1.683c1.389,1.629,1.378,4.834,1.378,4.834,0,3.736-2.023,5.878-5.549,5.878" transform="translate(-1.551 -0.231)" fill="#46f95f"/>
    <path id="Path_131482" data-name="Path 131482" d="M0,148.477v-.039a7.013,7.013,0,0,1,7.226-7.014,6.949,6.949,0,0,1,7.188,6.975v.039a7.013,7.013,0,0,1-7.226,7.013A6.948,6.948,0,0,1,0,148.477m11.3,0v-.039a4.12,4.12,0,0,0-4.107-4.262A4.056,4.056,0,0,0,3.119,148.4v.039A4.12,4.12,0,0,0,7.226,152.7a4.056,4.056,0,0,0,4.069-4.223" transform="translate(0 -96.205)" fill="#46f95f"/>
    <path id="Path_131483" data-name="Path 131483" d="M52.712,149.9v-7.75H55.7v7.672c0,2.208,1.1,3.352,2.925,3.352s2.926-1.1,2.926-3.255v-7.769H64.53v7.653c0,4.107-2.305,6.122-5.948,6.122s-5.87-2.034-5.87-6.025" transform="translate(-35.858 -96.701)" fill="#46f95f"/>
    <path id="Path_131484" data-name="Path 131484" d="M100.281,144.9H96.155v-2.751h11.237V144.9h-4.127v10.811h-2.984Z" transform="translate(-65.41 -96.701)" fill="#46f95f"/>
    <path id="Path_131485" data-name="Path 131485" d="M134.628,153.326l1.763-2.112a6.223,6.223,0,0,0,4.049,1.647c1.22,0,1.957-.484,1.957-1.279v-.039c0-.756-.465-1.143-2.732-1.724-2.732-.7-4.495-1.453-4.495-4.146v-.039c0-2.46,1.976-4.088,4.747-4.088a7.85,7.85,0,0,1,5.037,1.724l-1.55,2.247a6.363,6.363,0,0,0-3.526-1.337c-1.143,0-1.744.523-1.744,1.182v.039c0,.891.581,1.182,2.926,1.782,2.751.717,4.3,1.705,4.3,4.069v.039c0,2.693-2.053,4.2-4.979,4.2a8.631,8.631,0,0,1-5.754-2.17" transform="translate(-91.582 -96.289)" fill="#46f95f"/>
    <path id="Path_131486" data-name="Path 131486" d="M176.5,144.9h-4.127v-2.751h11.237V144.9h-4.127v10.811H176.5Z" transform="translate(-117.26 -96.701)" fill="#46f95f"/>
    <path id="Path_131487" data-name="Path 131487" d="M211.391,141.85h2.751l5.812,13.658h-3.119l-1.24-3.042h-5.735l-1.24,3.042h-3.042Zm3.139,7.982-1.8-4.4-1.8,4.4Z" transform="translate(-139.847 -96.495)" fill="#46f95f"/>
    <path id="Path_131488" data-name="Path 131488" d="M257.079,142.153h2.751l6.355,8.35v-8.35h2.945v13.562h-2.538l-6.568-8.622v8.622h-2.945Z" transform="translate(-174.88 -96.701)" fill="#46f95f"/>
    <path id="Path_131489" data-name="Path 131489" d="M304.944,142.153h5.289c4.263,0,7.207,2.926,7.207,6.742v.039c0,3.817-2.945,6.781-7.207,6.781h-5.289Zm2.983,2.693v8.176h2.305a3.865,3.865,0,0,0,4.088-4.049v-.039a3.9,3.9,0,0,0-4.088-4.088Z" transform="translate(-207.441 -96.701)" fill="#46f95f"/>
    <rect id="Rectangle_193" data-name="Rectangle 193" width="2.984" height="13.562" transform="translate(112.789 45.452)" fill="#46f95f"/>
    <path id="Path_131490" data-name="Path 131490" d="M372.683,142.153h2.751l6.355,8.35v-8.35h2.945v13.562H382.2l-6.568-8.622v8.622h-2.945Z" transform="translate(-253.521 -96.701)" fill="#46f95f"/>
    <path id="Path_131491" data-name="Path 131491" d="M418.67,148.477v-.039a6.961,6.961,0,0,1,7.11-7.014,7.444,7.444,0,0,1,5.328,1.86l-1.879,2.267a4.993,4.993,0,0,0-3.545-1.376,4.073,4.073,0,0,0-3.894,4.223v.039a4.063,4.063,0,0,0,4.107,4.3,4.762,4.762,0,0,0,2.809-.814v-1.937h-3v-2.577h5.89v5.89a8.8,8.8,0,0,1-5.793,2.15,6.787,6.787,0,0,1-7.13-6.975" transform="translate(-284.804 -96.205)" fill="#46f95f"/>
  </g>
</svg>
