<svg xmlns="http://www.w3.org/2000/svg" width="115.321" height="68.778" viewBox="0 0 115.321 68.778">
  <g id="Group_131529" data-name="Group 131529" transform="translate(-1499.339 -759.506)">
    <path id="Path_131612" data-name="Path 131612" d="M14.469,18.071,28.843,32.632M42.777,18.071,28.4,32.632m14.478,1.289L28.508,48.483M14.374,34.11,28.938,48.481M25.078,60.2A14.644,14.644,0,0,1,14.157,46.183L14,22.087a14.58,14.58,0,0,1,29.159-.193l.161,24.1a14.622,14.622,0,0,1-7.8,12.994M28.411,7.411l.442,66.764" transform="translate(1487.342 754.096)" fill="none" stroke="#46f95f" stroke-linejoin="round" stroke-width="4"/>
    <path id="Path_131652" data-name="Path 131652" d="M14.469,18.071,28.843,32.632M42.777,18.071,28.4,32.632m14.478,1.289L28.508,48.483M14.374,34.11,28.938,48.481M25.078,60.2A14.644,14.644,0,0,1,14.157,46.183L14,22.087a14.58,14.58,0,0,1,29.159-.193l.161,24.1a14.622,14.622,0,0,1-7.8,12.994M28.411,7.411l.442,66.764" transform="translate(1528.342 754.096)" fill="none" stroke="#46f95f" stroke-linejoin="round" stroke-width="4"/>
    <path id="Path_131653" data-name="Path 131653" d="M14.469,18.071,28.843,32.632M42.777,18.071,28.4,32.632m14.478,1.289L28.508,48.483M14.374,34.11,28.938,48.481M25.078,60.2A14.644,14.644,0,0,1,14.157,46.183L14,22.087a14.58,14.58,0,0,1,29.159-.193l.161,24.1a14.622,14.622,0,0,1-7.8,12.994M28.411,7.411l.442,66.764" transform="translate(1569.342 754.096)" fill="none" stroke="#46f95f" stroke-linejoin="round" stroke-width="4"/>
  </g>
</svg>
