<svg id="Group_131426" data-name="Group 131426" xmlns="http://www.w3.org/2000/svg" xmlns:xlink="http://www.w3.org/1999/xlink" width="142.121" height="63.255" viewBox="0 0 142.121 63.255">
  <defs>
    <clipPath id="clip-path">
      <rect id="Rectangle_206" data-name="Rectangle 206" width="142.121" height="63.256" fill="none"/>
    </clipPath>
  </defs>
  <g id="Group_131425" data-name="Group 131425" clip-path="url(#clip-path)">
    <path id="Path_131570" data-name="Path 131570" d="M270.068,50.17H254.012v1.47a15.2,15.2,0,0,1,1.914.275,3.107,3.107,0,0,1,1.365.615c.961.817.941,2.348.941,5.12V76.262c0,3.783.338,9.15-5.027,9.08a5.777,5.777,0,0,1-5.4-4.663h-1.846c.782,5.017,3.453,8.419,9.93,8.419h.03c5.5,0,10.411-2.522,10.4-11.118V57.651c0-2.774-.02-4.24.938-5.059a4.253,4.253,0,0,1,2.8-.951Z" transform="translate(-183.926 -37.516)" fill="#fff"/>
    <path id="Path_131571" data-name="Path 131571" d="M366.957,50.17H350.881v1.47a4.182,4.182,0,0,1,2.8.946c.769.656.908,1.73.933,3.556V82.126c-.025,1.829-.164,2.9-.933,3.556a4.182,4.182,0,0,1-2.8.946v1.478h24.281l2.56-7.433H375.85c-1.866,4.083-4.752,4.56-7.385,4.56-2.151,0-3.584-.121-4.6-.779-.82-.525-1.125-1.907-1.14-4.25V57.651c0-2.774-.02-4.3.938-5.12.613-.525,1.622-.719,3.3-.883V50.17Z" transform="translate(-262.384 -37.516)" fill="#fff"/>
    <path id="Path_131572" data-name="Path 131572" d="M473.14,50.17H457.071v1.47a4.18,4.18,0,0,1,2.8.946c.769.656.908,1.73.933,3.556V82.126c-.025,1.829-.164,2.9-.933,3.556a4.18,4.18,0,0,1-2.8.946v1.478h24.278l2.563-7.433h-1.887c-1.866,4.083-4.752,4.56-7.385,4.56-2.151,0-3.584-.121-4.6-.779-.82-.525-1.125-1.907-1.14-4.25V57.651c0-2.774-.02-4.3.941-5.12.613-.525,1.622-.719,3.3-.883Z" transform="translate(-341.791 -37.516)" fill="#fff"/>
    <path id="Path_131573" data-name="Path 131573" d="M78.854,90.865a14.2,14.2,0,0,0,2.139-1.228c.144-.1.293-.194.431-.3A18.473,18.473,0,0,0,83.8,87.2a23.619,23.619,0,0,0,2.593-3.3,31.682,31.682,0,0,0,1.675-2.873,41.39,41.39,0,0,0,3.884-12.381,54.915,54.915,0,0,0,0-16.4,41.366,41.366,0,0,0-3.884-12.379c-.23-.449-.474-.893-.724-1.332a37.682,37.682,0,0,0-2.61,6.018,47.322,47.322,0,0,1,2.29,11.8c.093,1.354.129,2.719.131,4.083s-.033,2.729-.126,4.083a45.737,45.737,0,0,1-3.231,14.285A35.6,35.6,0,0,1,81.2,83.893c-.235.383-.454.774-.7,1.148-.5.757-1.059,1.5-1.644,2.222a27.14,27.14,0,0,1-2.139,2.368,22.1,22.1,0,0,1-2.585,2.177c-.073.053-.141.108-.217.161v.086a12.641,12.641,0,0,0,4.943-1.19" transform="translate(-55.27 -28.82)" fill="#fff"/>
    <path id="Path_131574" data-name="Path 131574" d="M118.054,71.639a14.229,14.229,0,0,0,2.141-1.228c.141-.1.29-.194.431-.3a23.673,23.673,0,0,0,6.636-8.323,41.319,41.319,0,0,0,3.884-12.381,55.026,55.026,0,0,0,0-16.4,41.3,41.3,0,0,0-3.887-12.379,24.337,24.337,0,0,0-6-7.8,29.9,29.9,0,0,0-2.27,2.774q.366.5.711,1.009c4.076,6.053,6.03,13.3,6.527,20.52q.141,2.033.139,4.083c0,1.364-.045,2.729-.139,4.083-.5,7.221-2.454,14.47-6.527,20.52-.5.757-1.059,1.5-1.644,2.222a27.9,27.9,0,0,1-2.136,2.368,22.281,22.281,0,0,1-2.585,2.177l-.217.161v.086a12.641,12.641,0,0,0,4.933-1.2" transform="translate(-84.59 -9.594)" fill="#fff"/>
    <path id="Path_131575" data-name="Path 131575" d="M159.789,60.511a23.623,23.623,0,0,0,6.636-8.323,41.322,41.322,0,0,0,3.887-12.381,55.027,55.027,0,0,0,0-16.4,41.3,41.3,0,0,0-3.887-12.379,23.758,23.758,0,0,0-6.636-8.323A13.44,13.44,0,0,0,152.281,0V.086a26.3,26.3,0,0,1,6.583,6.928c4.076,6.053,6.03,13.3,6.53,20.52q.136,2.033.139,4.083t-.139,4.083c-.5,7.221-2.454,14.47-6.53,20.52a26.5,26.5,0,0,1-6.583,6.928v.086a13.359,13.359,0,0,0,7.508-2.724" transform="translate(-113.873)" fill="#fff"/>
    <path id="Path_131576" data-name="Path 131576" d="M92.049,1.193A14.228,14.228,0,0,0,89.91,2.424c-.144.1-.293.194-.431.3a18.67,18.67,0,0,0-2.371,2.134,23.777,23.777,0,0,0-2.593,3.3,31.656,31.656,0,0,0-1.675,2.88,41.366,41.366,0,0,0-3.884,12.379,54.915,54.915,0,0,0,0,16.4A41.393,41.393,0,0,0,82.84,52.209c.23.449.474.893.724,1.332a37.45,37.45,0,0,0,2.61-6.03,47.324,47.324,0,0,1-2.3-11.8c-.093-1.354-.129-2.719-.131-4.083s.033-2.729.126-4.083A45.737,45.737,0,0,1,87.1,13.261a35.765,35.765,0,0,1,2.6-5.1c.235-.381.454-.772.7-1.145.5-.757,1.059-1.5,1.644-2.222a27.142,27.142,0,0,1,2.139-2.368A21.889,21.889,0,0,1,96.773.252c.073-.053.141-.111.217-.161V0a12.639,12.639,0,0,0-4.941,1.193" transform="translate(-58.582)" fill="#fff"/>
    <path id="Path_131577" data-name="Path 131577" d="M52.878,1.193a14.252,14.252,0,0,0-2.141,1.231c-.141.1-.29.194-.431.3a23.651,23.651,0,0,0-6.636,8.323,41.3,41.3,0,0,0-3.884,12.379,55.027,55.027,0,0,0,0,16.4A41.4,41.4,0,0,0,43.67,52.209a24.337,24.337,0,0,0,6,7.8,30.274,30.274,0,0,0,2.27-2.762q-.366-.5-.711-1.009A41.789,41.789,0,0,1,44.7,35.719c-.093-1.354-.139-2.719-.139-4.083s.045-2.729.139-4.083c.5-7.221,2.454-14.47,6.527-20.52.5-.757,1.059-1.5,1.644-2.222A27.906,27.906,0,0,1,55.01,2.441,22.278,22.278,0,0,1,57.6.252c.073-.053.144-.111.217-.161V0a12.636,12.636,0,0,0-4.938,1.193" transform="translate(-29.291)" fill="#fff"/>
    <path id="Path_131578" data-name="Path 131578" d="M11.136,2.724A23.525,23.525,0,0,0,4.51,11.039a41.307,41.307,0,0,0-3.9,12.379,55.027,55.027,0,0,0,0,16.4A41.327,41.327,0,0,0,4.51,52.209a23.758,23.758,0,0,0,6.636,8.323,13.359,13.359,0,0,0,7.508,2.724V63.17a26.34,26.34,0,0,1-6.578-6.949C8,50.168,6.046,42.922,5.547,35.7c-.091-1.354-.136-2.719-.136-4.083s.045-2.729.136-4.083a41.426,41.426,0,0,1,6.53-20.52A26.049,26.049,0,0,1,18.647.086V0a13.36,13.36,0,0,0-7.511,2.724" transform="translate(0)" fill="#fff"/>
    <path id="Path_131579" data-name="Path 131579" d="M114.819,223.268a29.493,29.493,0,0,0,2.27-2.774q-.368-.5-.711-1.009c-.252-.373-.469-.757-.7-1.145a23.776,23.776,0,0,1-2.593,3.3,19.433,19.433,0,0,0,1.733,1.619" transform="translate(-84.56 -163.271)" fill="#fff"/>
    <path id="Path_131580" data-name="Path 131580" d="M134.83,241.11a14.118,14.118,0,0,1-2.139,1.231,12.636,12.636,0,0,0,4.938,1.193v-.086a22.013,22.013,0,0,1-2.8-2.338" transform="translate(-99.224 -180.298)" fill="#fff"/>
    <path id="Path_131581" data-name="Path 131581" d="M97.519,243.468c.267-.028.535-.073.8-.119-.27-.192-.537-.388-.8-.6a23.046,23.046,0,0,1-1.869-1.644,14.227,14.227,0,0,1-2.139,1.231,13.37,13.37,0,0,0,3.208,1.009c.267.045.532.091.8.119m.933.066v-.086c-.045-.033-.088-.068-.134-.1-.252.045-.532.091-.8.119.31.033.623.058.933.066" transform="translate(-69.926 -180.298)" fill="#fff"/>
    <path id="Path_131582" data-name="Path 131582" d="M99.5,12.84a29.868,29.868,0,0,0-2.27,2.774q.366.5.711,1.009c.252.373.469.757.706,1.145a23.794,23.794,0,0,1,2.59-3.3,19.12,19.12,0,0,0-1.733-1.619" transform="translate(-72.708 -9.602)" fill="#fff"/>
    <path id="Path_131583" data-name="Path 131583" d="M76.733,2.424a14.117,14.117,0,0,1,2.139-1.231A12.658,12.658,0,0,0,73.931,0V.086a22.034,22.034,0,0,1,2.8,2.338" transform="translate(-55.284)" fill="#fff"/>
    <path id="Path_131584" data-name="Path 131584" d="M118.042,1.193A13.37,13.37,0,0,0,114.834.184c-.275-.045-.527-.091-.8-.119-.31-.033-.62-.058-.933-.066V.086c.045.033.088.068.134.1.27.192.537.388.8.593A23.122,23.122,0,0,1,115.9,2.424a14.227,14.227,0,0,1,2.139-1.231" transform="translate(-84.575)" fill="#fff"/>
  </g>
</svg>
