<svg xmlns="http://www.w3.org/2000/svg" width="259.706" height="29.371" viewBox="0 0 259.706 29.371">
  <g id="Group_131386" data-name="Group 131386" transform="translate(-126 -6758.406)">
    <text id="Designed_by" data-name="Designed by" transform="translate(126 6779)" fill="#edfeef" font-size="21" font-family="Helvetica" letter-spacing="-0.01em"><tspan x="0" y="0">Designed by</tspan></text>
    <path id="Path_9068" data-name="Path 9068" d="M82.756,66.155,82.4,68.391l-.239-.03A22.209,22.209,0,0,0,82.4,65.2V62.13H80.908L76.047,63.8v1.252c.328-.03.716-.059.955-.059.895,0,1.372.358,1.372,1.223v7.723c0,1.461-.507,1.849-2.236,1.968v1.252H85.8V75.906c-2.236-.089-3.071-.328-3.071-2.087V69.465c0-2.714,1.58-3.37,3.161-3.37a2.759,2.759,0,0,1,1.491.358h.805V61.891a2.354,2.354,0,0,0-.835-.119C84.844,61.771,83.2,63.471,82.756,66.155ZM104.6,74.8l-.805-.626a1.275,1.275,0,0,1-1.043.656c-.656,0-1.014-.477-1.014-1.312V68.063c0-4.025-1.879-6.292-5.934-6.292-3.668,0-5.755,2.058-6.351,4.532l1.163.507a3.889,3.889,0,0,1,3.757-2.3c2.027,0,3.011,1.073,3.011,3.041v.686l-2.594.507c-3.757.716-5.755,2.356-5.755,4.831,0,2.684,1.879,3.936,4.2,3.936a4.1,4.1,0,0,0,4.175-2.654h.209a3.006,3.006,0,0,0,3.221,2.624A3.856,3.856,0,0,0,104.6,74.8Zm-7.216-.954a1.837,1.837,0,0,1-1.789,1.223,2.1,2.1,0,0,1-2.147-2.356c0-1.64,1.044-2.564,2.8-2.952l1.133-.239Zm14.587,3.668c4.562,0,8.17-3.459,8.17-8.826,0-4.264-2.207-6.918-5.725-6.918-2.445,0-4.264,1.7-5.129,4.175l-.239-.089a5.723,5.723,0,0,0,.477-2V62.13H108.03l-4.861,1.67v1.252c.388-.03.775-.059,1.044-.059.8.03,1.282.388,1.282,1.223V80.647c0,1.461-.507,1.848-2.236,1.968v1.252h9.662V82.615c-2.356-.149-3.071-.328-3.071-2.087V77.1A4.8,4.8,0,0,0,111.966,77.516Zm-2.117-11.54a3.239,3.239,0,0,1,2.475-1.252c2.177,0,3.28,1.879,3.28,5.159,0,3.906-1.431,6.173-3.787,6.173a2.783,2.783,0,0,1-1.968-.686ZM66.47,68.534l.538.03c2.329.149,3.195.716,3.225,2.209v3.643A4.616,4.616,0,0,1,66.59,75.76c-4,0-6.509-3.494-6.509-9.047,0-5.882,2.448-9.2,6.718-9.2,3.165,0,5.076,1.7,5.942,5.374h1.4V56.77a21.7,21.7,0,0,0-6.628-1.015c-7.733,0-12.571,4.18-12.571,10.958,0,6.718,4.479,10.958,11.555,10.958a12.7,12.7,0,0,0,7.764-2.359V70.893c0-1.7.537-2.389,1.791-2.389V67.28H66.47Zm68.924,5.284V66.751c0-3.519-1.908-4.98-4.711-4.98-2.564,0-4.383,1.521-5.278,4.085L125.2,65.8a11.568,11.568,0,0,0,.745-4.055V54.5H124.66l-5.427,1.4V57.12c.358-.03.716-.059.984-.059,1.014,0,1.372.447,1.372,1.759V73.938c0,1.431-.507,1.789-2.236,1.968v1.252h8.2V75.906c-1.223-.149-1.61-.417-1.61-1.968V66.065a2.737,2.737,0,0,1,2.743-1.521c1.432,0,2.356.894,2.356,2.714v6.768c0,1.312-.418,1.789-1.61,1.879v1.252h8.2V75.906C136.021,75.756,135.395,75.4,135.395,73.818Zm10.025,0V62.13h-1.491l-5.278,1.58v1.252c.388-.03.805-.059,1.074-.059.894,0,1.342.447,1.342,1.58v7.455c0,1.461-.507,1.849-2.236,1.968v1.252h8.826V75.906C146.045,75.786,145.419,75.4,145.419,73.818ZM143.213,60.28a2.53,2.53,0,0,0,2.594-2.624,2.594,2.594,0,0,0-5.189,0A2.53,2.53,0,0,0,143.213,60.28Zm44.341,7.932-3.578-1.461c-1.1-.448-1.491-.984-1.491-1.819,0-.955.805-1.581,2.207-1.581a4.066,4.066,0,0,1,4,3.012H190V62.875a11.387,11.387,0,0,0-4.8-1.133c-3.548,0-6.083,1.848-6.083,4.98,0,2.385,1.73,3.608,3.548,4.294l3.161,1.282c1.1.418,1.461.955,1.461,1.789,0,1.282-1.193,1.73-2.445,1.73a4.44,4.44,0,0,1-4.383-3.578h-1.372v3.876a9.311,9.311,0,0,0,5.189,1.432c3.876,0,6.351-1.968,6.351-5.218A4.17,4.17,0,0,0,187.554,68.212ZM175.208,73.52l-4.532-5.725-.09-.149,2.982-2.386a7.2,7.2,0,0,1,3.757-1.879V62.13h-6.888v1.252c1.073,0,1.67.149,1.67.805,0,.477-.239.864-1.223,1.64l-3.721,2.9V54.5h-1.282L161,55.744c-.141.037-.55.157-.55.157a4.106,4.106,0,0,0-2.552,2.213,4.879,4.879,0,0,0,.153,3.962,11.055,11.055,0,0,0-2.744-.3c-5.039,0-7.991,3.757-7.991,8.111,0,4.413,2.833,7.634,7.1,7.634a6.033,6.033,0,0,0,6.143-4.95l-1.044-.536a3.684,3.684,0,0,1-3.548,1.908c-3.071,0-4.98-2.117-4.98-5.457,0-2.624,1.282-4.443,3.787-4.443a3.512,3.512,0,0,1,3.727,3.1h1.491V62.785c-1.071-1.5-1.4-2.991-.888-4.134a2.7,2.7,0,0,1,2.389-1.59c.97.016,1.316.442,1.316,1.758V73.938c0,1.461-.507,1.819-2.236,1.968v1.252h8.2V75.906c-1.223-.149-1.61-.417-1.61-1.968V70.3l5.241,6.859h5.815V75.906A5.751,5.751,0,0,1,175.208,73.52Z" transform="translate(195.08 6703.909)" fill="#edfeef"/>
  </g>
</svg>
