<svg xmlns="http://www.w3.org/2000/svg" width="100.503" height="87.854" viewBox="0 0 100.503 87.854">
  <g id="Group_131487" data-name="Group 131487" transform="translate(-4379.779 -2212.954)">
    <path id="Path_131601" data-name="Path 131601" d="M84.145,45.452A42.917,42.917,0,0,0,9.631,20.47" transform="translate(4389.41 2207.549)" fill="none" stroke="#1c4733" stroke-linejoin="round" stroke-width="2"/>
    <path id="Path_131602" data-name="Path 131602" d="M16.73,14.085l3.855,12.341m-4.139-12.6L3.638,18.486m13.31-5.168A42.925,42.925,0,1,0,96.681,41.4" transform="translate(4376.482 2222.461)" fill="none" stroke="#1c4733" stroke-linejoin="round" stroke-width="2"/>
    <path id="Path_131603" data-name="Path 131603" d="M39.924,27.371l5.913-12.853M30.087,19.105l9.768,8.224" transform="translate(4433.535 2225.049)" fill="none" stroke="#1c4733" stroke-linejoin="round" stroke-width="2"/>
    <path id="Path_131604" data-name="Path 131604" d="M36.987,68.084S34.84,64.93,39.13,62.155s5.424-2.523,7.82-8.7,8.073-7.189,10.343-4.666a38.132,38.132,0,0,0,6.434,5.171M66.221,31.42s-5.5,5.108-8.512,6.418-6.68,3.012-2.491,4.584,7.729-.129,9.954,2.1,1.181,4.06,1.181,4.06M24.908,16.2s2.6,2.469,1.171,4.811-4.941,6.892-3.77,10.662,1.689,7.672.647,11.186-3.119,11.182,1.3,8.84,4.294-4.42,8.193-2.731,8.972.129,8.452-3.381-5.98-14.434.133-15.732,5.85-3.122,8.322-1.822,12.092,2.21,14.564-2.21M10.865,39.736A28.477,28.477,0,1,1,39.342,68.213,28.477,28.477,0,0,1,10.865,39.736Z" transform="translate(4392.072 2218.019)" fill="none" stroke="#1c4733" stroke-linejoin="round" stroke-width="2"/>
  </g>
</svg>
