<svg xmlns="http://www.w3.org/2000/svg" xmlns:xlink="http://www.w3.org/1999/xlink" width="131" height="131" viewBox="0 0 131 131">
  <defs>
    <clipPath id="clip-path">
      <rect id="Rectangle_222" data-name="Rectangle 222" width="131" height="131" fill="none"/>
    </clipPath>
  </defs>
  <g id="Group_131453" data-name="Group 131453" clip-path="url(#clip-path)">
    <path id="Path_131593" data-name="Path 131593" d="M0,65.331a65.331,65.331,0,1,1,65.331,65.331A65.33,65.33,0,0,1,0,65.331" transform="translate(0 0)" fill="#14ff3d"/>
    <path id="Path_131594" data-name="Path 131594" d="M58.474,36.28c0,5.853-1.953,10.6-4.36,10.6s-4.367-4.746-4.367-10.6,1.953-10.6,4.367-10.6S58.474,30.427,58.474,36.28Zm-18.7,0c0,5.853-1.953,10.6-4.367,10.6s-4.364-4.746-4.364-10.6,1.953-10.6,4.364-10.6S39.778,30.427,39.778,36.28ZM65.735,53.862a21.215,21.215,0,0,1-40.922-.343M8.7,45.615A36.915,36.915,0,1,1,45.612,82.526,36.914,36.914,0,0,1,8.7,45.615Z" transform="translate(19.716 19.716)" fill="none" stroke="#1c4733" stroke-linejoin="round" stroke-width="2"/>
  </g>
</svg>
