<svg xmlns="http://www.w3.org/2000/svg" width="116.045" height="115.681" viewBox="0 0 116.045 115.681">
  <g id="Group_131488" data-name="Group 131488" transform="translate(-337 -2208.955)">
    <path id="Path_131596" data-name="Path 131596" d="M18.371,34.316,7.06,27.786m25.854-6.274L26.384,10.2M51.906,17.7V4.639" transform="translate(353.106 2204.316)" fill="none" stroke="#1c4733" stroke-linejoin="round" stroke-width="2"/>
    <line id="Line_127" data-name="Line 127" x1="13.06" transform="translate(352.223 2256.987)" fill="none" stroke="#1c4733" stroke-linejoin="round" stroke-width="2"/>
    <line id="Line_128" data-name="Line 128" x1="11.311" y2="6.53" transform="translate(357.787 2275.981)" fill="none" stroke="#1c4733" stroke-linejoin="round" stroke-width="2"/>
    <path id="Path_131597" data-name="Path 131597" d="M72.493,19.478,83.8,12.948M76.31,38.474h13.06M70.118,56.83l11.308,6.53M55.575,69.63,62.1,80.938M36.579,73.443V86.5M18.223,67.251l-6.53,11.311" transform="translate(363.676 2223.271)" fill="none" stroke="#1c4733" stroke-linejoin="round" stroke-width="2"/>
    <line id="Line_129" data-name="Line 129" y1="11.311" x2="6.53" transform="translate(423.369 2216.898)" fill="none" stroke="#1c4733" stroke-linejoin="round" stroke-width="2"/>
    <circle id="Ellipse_6" data-name="Ellipse 6" cx="28.144" cy="28.144" r="28.144" transform="translate(374.489 2231.023)" fill="none" stroke="#1c4733" stroke-linejoin="round" stroke-width="2"/>
    <path id="Path_131598" data-name="Path 131598" d="M41.073,22.145A12.893,12.893,0,0,1,16.2,21.938" transform="translate(373.967 2243.781)" fill="none" stroke="#1c4733" stroke-linejoin="round" stroke-width="2"/>
    <path id="Path_131599" data-name="Path 131599" d="M0,97.73Z" transform="translate(337 2226.906)" fill="none" stroke="#707070" stroke-width="2"/>
  </g>
</svg>
