<svg id="Group_131443" data-name="Group 131443" xmlns="http://www.w3.org/2000/svg" xmlns:xlink="http://www.w3.org/1999/xlink" width="36.449" height="53.017" viewBox="0 0 36.449 53.017">
  <defs>
    <clipPath id="clip-path">
      <rect id="Rectangle_218" data-name="Rectangle 218" width="36.449" height="53.017" fill="#46f95f"/>
    </clipPath>
  </defs>
  <g id="Group_131440" data-name="Group 131440" transform="translate(0 0)" clip-path="url(#clip-path)">
    <path id="Path_131585" data-name="Path 131585" d="M31.479,21.538V13.254a13.254,13.254,0,0,0-26.508,0v8.284A4.976,4.976,0,0,0,0,26.508V48.046a4.976,4.976,0,0,0,4.97,4.97H31.479a4.976,4.976,0,0,0,4.97-4.97V26.508a4.975,4.975,0,0,0-4.97-4.97M8.284,13.254a9.941,9.941,0,0,1,19.882,0v8.284H8.284ZM33.135,48.046A1.659,1.659,0,0,1,31.479,49.7H4.97a1.659,1.659,0,0,1-1.657-1.657V26.508A1.659,1.659,0,0,1,4.97,24.851H31.479a1.659,1.659,0,0,1,1.657,1.657Z" transform="translate(0 0)" fill="#46f95f"/>
    <path id="Path_131586" data-name="Path 131586" d="M38.624,70.237a1.657,1.657,0,0,0-1.657,1.657v8.284a1.657,1.657,0,1,0,3.314,0V71.894a1.657,1.657,0,0,0-1.657-1.657" transform="translate(-20.399 -38.758)" fill="#46f95f"/>
  </g>
</svg>
