<svg xmlns="http://www.w3.org/2000/svg" width="148.715" height="45.994" viewBox="0 0 148.715 45.994">
  <g id="Group_131491" data-name="Group 131491" transform="translate(0 1.016)">
    <g id="Group_131528" data-name="Group 131528" transform="translate(0 0)">
      <line id="Line_139" data-name="Line 139" x2="76.618" transform="translate(72.097 13.939)" fill="none" stroke="#46f95f" stroke-miterlimit="10" stroke-width="4"/>
      <line id="Line_140" data-name="Line 140" x2="76.618" transform="translate(72.097 30.207)" fill="none" stroke="#46f95f" stroke-miterlimit="10" stroke-width="4"/>
      <path id="Path_131613" data-name="Path 131613" d="M47.616,23.353C47.941,23.353,83,7.085,83,7.085" transform="translate(46.071 6.854)" fill="none" stroke="#46f95f" stroke-miterlimit="10" stroke-width="4"/>
      <path id="Path_131614" data-name="Path 131614" d="M50.439.5C50.7.5,78.62,13.456,78.62,13.456" transform="translate(48.802 0.483)" fill="none" stroke="#46f95f" stroke-miterlimit="10" stroke-width="4"/>
      <path id="Path_131615" data-name="Path 131615" d="M48.218,15.353c.258,0,28.181,12.956,28.181,12.956" transform="translate(46.653 14.854)" fill="none" stroke="#46f95f" stroke-miterlimit="10" stroke-width="4"/>
      <path id="Path_131616" data-name="Path 131616" d="M44.724,21.4A20.284,20.284,0,1,1,24.438,1.112,20.286,20.286,0,0,1,44.724,21.4Z" transform="translate(4.02 1.075)" fill="none" stroke="#46f95f" stroke-miterlimit="10" stroke-width="4"/>
      <line id="Line_141" data-name="Line 141" x2="56.905" transform="translate(0 18.474)" fill="none" stroke="#46f95f" stroke-miterlimit="10" stroke-width="4"/>
      <line id="Line_142" data-name="Line 142" x2="56.905" transform="translate(0 26.474)" fill="none" stroke="#46f95f" stroke-miterlimit="10" stroke-width="4"/>
    </g>
  </g>
</svg>
